<svg width="31" height="32" viewBox="0 0 31 32" fill="none" xmlns="http://www.w3.org/2000/svg">
<path fill-rule="evenodd" clip-rule="evenodd" d="M16.5 25.0002C22.8513 25.0002 28 19.8514 28 13.5002C28 7.14888 22.8513 2.00015 16.5 2.00015C10.1487 2.00015 5 7.14888 5 13.5002C5 19.8514 10.1487 25.0002 16.5 25.0002Z" fill="white"/>
<path d="M12.6796 19V8H17.2081C18.6901 8 19.8593 8.31429 20.7156 8.94286C21.5719 9.56095 22 10.4671 22 11.6614C22 12.8557 21.5719 13.7671 20.7156 14.3957C19.8593 15.0243 18.6901 15.3386 17.2081 15.3386H13.6018L14.3428 14.6V19H12.6796ZM14.3428 14.7571L13.6018 14.0343H17.2081C18.2181 14.0343 18.992 13.83 19.5299 13.4214C20.0679 13.0129 20.3368 12.4314 20.3368 11.6771C20.3368 10.9333 20.0679 10.3624 19.5299 9.96429C18.992 9.56619 18.2181 9.36714 17.2081 9.36714H13.6018L14.3428 8.58143V14.7571ZM11 17.1614V16.2657H17.9985V17.1614H11Z" fill="#010103"/>
</svg>
