<?xml version="1.0" encoding="utf-8"?>
<!-- Generator: Adobe Illustrator 27.2.0, SVG Export Plug-In . SVG Version: 6.00 Build 0)  -->
<svg version="1.1" id="Layer_1" xmlns="http://www.w3.org/2000/svg" xmlns:xlink="http://www.w3.org/1999/xlink" x="0px" y="0px"
	 viewBox="0 0 31 32" style="enable-background:new 0 0 31 32;" xml:space="preserve">
<style type="text/css">
	.st0{fill-rule:evenodd;clip-rule:evenodd;fill:#FFFFFF;}
</style>
<polygon class="st0" points="14.3,14.7 14.3,14.6 14.3,14.8 "/>
<path class="st0" d="M20.3,11.7c0,0.8-0.3,1.3-0.8,1.7C19,13.8,18.2,14,17.2,14h-2.9V9.4h2.9c1,0,1.8,0.2,2.3,0.6
	C20.1,10.4,20.3,10.9,20.3,11.7z"/>
<path class="st0" d="M16.5,2C10.2,2,5,7.2,5,13.5S10.2,25,16.5,25S28,19.8,28,13.5S22.8,2,16.5,2z M20.7,14.4
	c-0.9,0.6-2,0.9-3.5,0.9h-2.9v0.9H18v0.9h-3.7V19h-1.7v-1.8H11v-0.9h1.7V8h4.5c1.5,0,2.6,0.3,3.5,0.9c0.9,0.6,1.3,1.5,1.3,2.7
	C22,12.9,21.6,13.8,20.7,14.4z"/>
<path d="M20.7,8.9c-0.9-0.6-2-0.9-3.5-0.9h-4.5v8.3H11v0.9h1.7V19h1.7v-1.8H18v-0.9h-3.7v-0.9h2.9c1.5,0,2.6-0.3,3.5-0.9
	c0.9-0.6,1.3-1.5,1.3-2.7C22,10.5,21.6,9.6,20.7,8.9z M14.3,14.8L14.3,14.8v-0.2V14.8z M19.5,13.4C19,13.8,18.2,14,17.2,14h-2.9V9.4
	h2.9c1,0,1.8,0.2,2.3,0.6c0.5,0.4,0.8,1,0.8,1.7S20.1,13,19.5,13.4z"/>
</svg>
