<svg width="25" height="25" viewBox="0 0 25 25" fill="none" xmlns="http://www.w3.org/2000/svg">
<path d="M24 6.62766H19.5V3.61489C19.5 1.87872 18.15 0.5 16.45 0.5H8.55C6.85 0.5 5.5 1.87872 5.5 3.61489V6.62766H1C0.45 6.62766 0 7.08723 0 7.64894V19.3426C0 22.2021 2.25 24.5 5.05 24.5H19.95C22.75 24.5 25 22.2021 25 19.3426V7.64894C25 7.08723 24.55 6.62766 24 6.62766ZM7.5 3.61489C7.5 3.00213 7.95 2.54255 8.55 2.54255H16.45C17.05 2.54255 17.5 3.00213 17.5 3.61489V6.62766H7.5V3.61489ZM23 19.3426C23 21.0787 21.65 22.4574 19.95 22.4574H5.05C3.35 22.4574 2 21.0787 2 19.3426V8.67021H5.5V10.7128C5.5 11.2745 5.95 11.734 6.5 11.734C7.05 11.734 7.5 11.2745 7.5 10.7128V8.67021H17.5V10.7128C17.5 11.2745 17.95 11.734 18.5 11.734C19.05 11.734 19.5 11.2745 19.5 10.7128V8.67021H23V19.3426Z" fill="black"/>
</svg>
