<?xml version="1.0" encoding="utf-8"?>
<!-- Generator: Adobe Illustrator 27.2.0, SVG Export Plug-In . SVG Version: 6.00 Build 0)  -->
<svg version="1.1" id="Layer_1" xmlns="http://www.w3.org/2000/svg" xmlns:xlink="http://www.w3.org/1999/xlink" x="0px" y="0px"
	 viewBox="0 0 35 35" style="enable-background:new 0 0 35 35;" xml:space="preserve">
<style type="text/css">
	.st0{fill-rule:evenodd;clip-rule:evenodd;fill:#FFFFFF;}
	.st1{fill-rule:evenodd;clip-rule:evenodd;}
</style>
<path class="st0" d="M17.3,5.8C11,5.8,5.8,11,5.8,17.3c0,6.3,5.1,11.5,11.5,11.5c6.3,0,11.5-5.2,11.5-11.5
	C28.8,11,23.7,5.8,17.3,5.8z M23.3,20.1c0,0.3-0.2,0.5-0.5,0.5c-0.1,0-0.1,0-0.1,0l-6-1.6c-0.3-0.1-0.5-0.4-0.5-0.7l0.6-7.3
	c0-0.3,0.3-0.6,0.6-0.6h0.1c0.3,0,0.6,0.2,0.7,0.6l0.6,5.9l4.2,2.4c0.2,0.1,0.3,0.3,0.3,0.6V20.1z"/>
<path class="st1" d="M23.3,19.8v0.3c0,0.3-0.2,0.5-0.5,0.5c-0.1,0-0.1,0-0.1,0l-6-1.6c-0.3-0.1-0.5-0.4-0.5-0.7l0.6-7.3
	c0-0.3,0.3-0.6,0.6-0.6h0.1c0.3,0,0.6,0.2,0.7,0.6l0.6,5.9l4.2,2.4C23.2,19.4,23.3,19.6,23.3,19.8z"/>
</svg>
