<?xml version="1.0" encoding="UTF-8"?>
<svg id="Layer_2" data-name="Layer 2" xmlns="http://www.w3.org/2000/svg" viewBox="0 0 32.17 38">
  <defs>
    <style>
      .cls-1 {
        fill: #eea734;
      }

      .cls-1, .cls-2 {
        fill-rule: evenodd;
      }

      .cls-2 {
        fill: #f8b64c;
        isolation: isolate;
        opacity: .2;
      }
    </style>
  </defs>
  <g id="Layer_1-2" data-name="Layer 1">
    <path class="cls-1" d="m8.83,22.5c0,6.44,5.22,11.67,11.67,11.67s11.67-5.22,11.67-11.67-5.22-11.67-11.67-11.67-11.67,5.22-11.67,11.67Zm11.73-7.13h-.11c-.34,0-.62.26-.65.6l-.56,7.29c-.02.31.18.59.48.68l5.99,1.63s.09.02.13.02c.27,0,.5-.22.5-.5v-.27c0-.23-.12-.45-.33-.56l-4.21-2.41-.59-5.9c-.03-.33-.31-.58-.64-.58Z"/>
    <path class="cls-2" d="m17.57,38c9.7,0,14.64-16.15,5.86-22.8C14.64,8.55,29.23,0,19.52,0S0,11.46,0,20.9s7.87,17.1,17.57,17.1Z"/>
  </g>
</svg>