<?xml version="1.0" encoding="utf-8"?>
<!-- Generator: Adobe Illustrator 27.2.0, SVG Export Plug-In . SVG Version: 6.00 Build 0)  -->
<svg version="1.1" id="Layer_1" xmlns="http://www.w3.org/2000/svg" xmlns:xlink="http://www.w3.org/1999/xlink" x="0px" y="0px"
	 viewBox="0 0 36 38" style="enable-background:new 0 0 36 38;" xml:space="preserve">
<style type="text/css">
	.st0{opacity:0.2;fill-rule:evenodd;clip-rule:evenodd;fill:#F8B64C;enable-background:new    ;}
	.st1{fill-rule:evenodd;clip-rule:evenodd;fill:#EEA734;}
	.st2{fill:#F6E8D3;}
</style>
<path class="st0" d="M17.6,38c9.7,0,14.6-16.1,5.9-22.8S29.2,0,19.5,0C9.8,0,0,11.5,0,20.9S7.9,38,17.6,38z"/>
<path class="st1" d="M20.5,35.3c7.1,0,12.9-6,12.9-13.3S27.6,8.7,20.5,8.7S7.6,14.6,7.6,22S13.4,35.3,20.5,35.3z"/>
<path class="st2" d="M25.2,18.3c0-0.1,0.1-0.1,0.1-0.2c0.2-0.7,0.3-1.4,0.2-2c-0.1-0.7-0.4-1.3-0.9-1.9c-0.5-0.6-1.1-1-1.7-1.3
	c-0.7-0.3-1.4-0.5-2.2-0.5s-1.5,0.2-2.2,0.5c-0.7,0.3-1.3,0.8-1.7,1.3c-0.5,0.6-0.8,1.2-0.9,1.9c-0.1,0.7-0.1,1.4,0.2,2
	c0,0.1,0.1,0.1,0.1,0.2c-1.1,0.8-1.9,2-2.2,3.2c-0.4,1.2-0.3,2.6,0.2,3.8c0.5,1.2,1.4,2.2,2.6,3c1.2,0.7,2.6,1.1,4,1.1
	c1.4,0,2.8-0.4,4-1.1c1.2-0.7,2.1-1.8,2.6-3c0.5-1.2,0.6-2.5,0.2-3.8C27,20.2,26.3,19.1,25.2,18.3L25.2,18.3z M17.2,17.5
	c-0.1-0.5-0.2-1-0.1-1.4c0.1-0.5,0.3-0.9,0.7-1.3s0.7-0.7,1.2-0.9c0.5-0.2,1-0.3,1.5-0.3s1.1,0.1,1.5,0.3c0.5,0.2,0.9,0.5,1.2,0.9
	c0.3,0.4,0.6,0.8,0.7,1.3c0.1,0.5,0.1,1-0.1,1.4c-1-0.5-2.2-0.8-3.4-0.8S18.3,17,17.2,17.5z"/>
</svg>
