<svg width="36" height="38" viewBox="0 0 36 38" fill="none" xmlns="http://www.w3.org/2000/svg">
<path opacity="0.2" fill-rule="evenodd" clip-rule="evenodd" d="M17.5718 38C27.2764 38 32.2149 21.85 23.429 15.2C14.6431 8.55 29.2288 0 19.5242 0C9.81957 0 0 11.4559 0 20.9C0 30.3441 7.86715 38 17.5718 38Z" fill="#F8B64C"/>
<path fill-rule="evenodd" clip-rule="evenodd" d="M20.5002 35.3333C27.6338 35.3333 33.4168 29.3638 33.4168 22C33.4168 14.6362 27.6338 8.66666 20.5002 8.66666C13.3665 8.66666 7.5835 14.6362 7.5835 22C7.5835 29.3638 13.3665 35.3333 20.5002 35.3333Z" fill="#EEA734"/>
<path d="M17.6796 28V17H22.2081C23.6901 17 24.8593 17.3143 25.7156 17.9429C26.5719 18.561 27 19.4671 27 20.6614C27 21.8557 26.5719 22.7671 25.7156 23.3957C24.8593 24.0243 23.6901 24.3386 22.2081 24.3386H18.6018L19.3428 23.6V28H17.6796ZM19.3428 23.7571L18.6018 23.0343H22.2081C23.2181 23.0343 23.992 22.83 24.5299 22.4214C25.0679 22.0129 25.3368 21.4314 25.3368 20.6771C25.3368 19.9333 25.0679 19.3624 24.5299 18.9643C23.992 18.5662 23.2181 18.3671 22.2081 18.3671H18.6018L19.3428 17.5814V23.7571ZM16 26.1614V25.2657H22.9985V26.1614H16Z" fill="white"/>
</svg>
