<svg width="25" height="25" viewBox="0 0 25 25" fill="none" xmlns="http://www.w3.org/2000/svg">
<path d="M23.9999 6.6276H19.4999V3.61483C19.4999 1.87866 18.1499 0.499939 16.4499 0.499939H8.54994C6.84994 0.499939 5.49994 1.87866 5.49994 3.61483V6.6276H0.999939C0.449939 6.6276 -6.10352e-05 7.08717 -6.10352e-05 7.64888V19.3425C-6.10352e-05 22.2021 2.24994 24.4999 5.04994 24.4999H19.9499C22.7499 24.4999 24.9999 22.2021 24.9999 19.3425V7.64888C24.9999 7.08717 24.5499 6.6276 23.9999 6.6276ZM7.49994 3.61483C7.49994 3.00207 7.94994 2.54249 8.54994 2.54249H16.4499C17.0499 2.54249 17.4999 3.00207 17.4999 3.61483V6.6276H7.49994V3.61483ZM22.9999 19.3425C22.9999 21.0787 21.6499 22.4574 19.9499 22.4574H5.04994C3.34994 22.4574 1.99994 21.0787 1.99994 19.3425V8.67015H5.49994V10.7127C5.49994 11.2744 5.94994 11.734 6.49994 11.734C7.04994 11.734 7.49994 11.2744 7.49994 10.7127V8.67015H17.4999V10.7127C17.4999 11.2744 17.9499 11.734 18.4999 11.734C19.0499 11.734 19.4999 11.2744 19.4999 10.7127V8.67015H22.9999V19.3425Z" fill="white"/>
</svg>
