<svg width="183" height="56" viewBox="0 0 183 56" fill="none" xmlns="http://www.w3.org/2000/svg">
<path d="M60.8764 34.2902L60.615 29.8074H61.4119L62.3209 32.3103C62.3624 32.4099 62.4413 32.5262 62.5575 32.659C62.682 32.7835 62.7899 32.8748 62.8813 32.9329C63.2631 33.1737 63.6823 33.3937 64.1389 33.5929C64.6038 33.7838 65.0562 33.9333 65.4962 34.0412C65.9445 34.1491 66.3347 34.2031 66.6667 34.2031C67.7625 34.2031 68.6342 33.9125 69.2817 33.3314C69.9292 32.7503 70.253 31.9285 70.253 30.8659C70.253 30.1021 70.0413 29.4795 69.6179 28.998C69.2028 28.5166 68.6383 28.1222 67.9244 27.8151C67.2852 27.5494 66.646 27.346 66.0068 27.2049C65.3758 27.0555 64.7491 26.8563 64.1265 26.6072C63.1884 26.2254 62.4579 25.6816 61.9349 24.976C61.4119 24.2621 61.1504 23.4029 61.1504 22.3984C61.1504 21.452 61.3911 20.597 61.8726 19.8332C62.3624 19.0612 63.0265 18.451 63.865 18.0028C64.7034 17.5545 65.6456 17.3303 66.6916 17.3303C67.281 17.3303 67.8538 17.3718 68.41 17.4549C68.9662 17.5296 69.5017 17.6292 70.0164 17.7537C70.5394 17.8782 71.0374 18.0152 71.5106 18.1646V22.3112H70.7137L69.9167 19.9827C69.8752 19.8581 69.7964 19.7461 69.6802 19.6464C69.5722 19.5385 69.4726 19.4514 69.3813 19.3849C69.1323 19.2023 68.8293 19.0487 68.4723 18.9242C68.1153 18.7914 67.7501 18.6918 67.3765 18.6254C67.0112 18.5589 66.6916 18.5257 66.4177 18.5257C65.4049 18.5257 64.6121 18.7831 64.0393 19.2978C63.4665 19.8042 63.1801 20.4517 63.1801 21.2403C63.1801 21.921 63.3378 22.5644 63.6533 23.1704C63.977 23.7681 64.6121 24.2413 65.5585 24.59C66.1728 24.8058 66.7746 24.9926 67.364 25.1503C67.9534 25.308 68.5968 25.528 69.2941 25.8103C69.8171 26.0261 70.3152 26.3042 70.7884 26.6446C71.2616 26.9849 71.6518 27.4249 71.9589 27.9645C72.2661 28.5041 72.4196 29.189 72.4196 30.0191C72.4196 30.8991 72.1996 31.75 71.7597 32.5718C71.328 33.3937 70.639 34.0702 69.6926 34.6015C68.7545 35.1328 67.5259 35.3985 66.0068 35.3985C65.5087 35.3985 64.9732 35.3445 64.4004 35.2366C63.8359 35.1287 63.2548 34.9917 62.6571 34.8257C62.0594 34.6513 61.4659 34.4729 60.8764 34.2902ZM76.5874 35V34.3525L78.2436 33.9665C78.4096 33.925 78.5466 33.8419 78.6545 33.7174C78.7624 33.5929 78.8164 33.4393 78.8164 33.2567V19.4597C78.8164 19.2687 78.7624 19.111 78.6545 18.9865C78.5466 18.8537 78.4096 18.7706 78.2436 18.7374L76.5874 18.3639V17.7164H83.3365V18.3639L81.6928 18.7374C81.5351 18.7706 81.3981 18.8537 81.2819 18.9865C81.174 19.1193 81.12 19.277 81.12 19.4597V33.2567C81.12 33.4476 81.174 33.6054 81.2819 33.7299C81.3898 33.8461 81.5268 33.925 81.6928 33.9665L83.3365 34.3525V35H76.5874ZM87.2349 35V34.3525L88.8786 33.8918C89.0363 33.8502 89.1691 33.7672 89.2771 33.6427C89.385 33.5099 89.4389 33.3563 89.4389 33.182V19.4597C89.4389 19.2687 89.385 19.111 89.2771 18.9865C89.1691 18.8537 89.0363 18.7706 88.8786 18.7374L87.2349 18.3639V17.7164H92.5644L96.5989 28.9109L97.4208 31.3889H97.4581L102.364 17.7164H107.632V18.3639L106 18.7374C105.843 18.7706 105.706 18.8537 105.589 18.9865C105.482 19.1193 105.428 19.277 105.428 19.4597V33.2567C105.428 33.4476 105.482 33.6054 105.589 33.7299C105.697 33.8461 105.834 33.925 106 33.9665L107.632 34.3525V35H100.92V34.3525L102.551 33.9665C102.709 33.925 102.842 33.8419 102.95 33.7174C103.066 33.5929 103.124 33.4393 103.124 33.2567V18.9491H103.074L102.427 20.8294L98.3423 32.1609L97.0597 35H96.4246L91.3192 20.8543L90.6593 18.9242H90.6219V33.182C90.6219 33.3729 90.6759 33.5306 90.7838 33.6552C90.8917 33.7714 91.0245 33.8502 91.1822 33.8918L92.8259 34.3525V35H87.2349ZM111.535 35V34.3525L113.179 33.9665C113.337 33.925 113.47 33.8419 113.578 33.7174C113.685 33.5929 113.739 33.4393 113.739 33.2567V19.4597C113.739 19.2687 113.685 19.111 113.578 18.9865C113.47 18.8537 113.337 18.7706 113.179 18.7374L111.535 18.3639V17.7164H124.299V21.7882H123.49L122.68 19.1982C122.639 19.0653 122.576 18.9574 122.493 18.8744C122.419 18.7914 122.311 18.7499 122.17 18.7499H116.043V25.6733H120.103C120.269 25.6733 120.389 25.6359 120.464 25.5612C120.538 25.4782 120.596 25.3745 120.638 25.2499L121.298 23.158H121.983V29.2222H121.298L120.638 27.1427C120.596 27.0181 120.538 26.9144 120.464 26.8314C120.389 26.7483 120.269 26.7068 120.103 26.7068H116.043V33.2567C116.043 33.4476 116.097 33.6054 116.205 33.7299C116.321 33.8544 116.462 33.9333 116.628 33.9665L118.446 34.3525V35H111.535ZM127.874 35V34.3525L129.518 33.9665C129.675 33.925 129.808 33.8419 129.916 33.7174C130.024 33.5929 130.078 33.4393 130.078 33.2567V19.4597C130.078 19.2687 130.024 19.111 129.916 18.9865C129.808 18.8537 129.675 18.7706 129.518 18.7374L127.874 18.3639V17.7164H140.612V21.8131H139.778L138.969 19.1982C138.927 19.0653 138.865 18.9574 138.782 18.8744C138.707 18.7914 138.599 18.7499 138.458 18.7499H132.382V25.4741H136.304C136.47 25.4741 136.59 25.4367 136.665 25.362C136.74 25.2873 136.798 25.1877 136.839 25.0631L137.499 23.0334H138.209V28.9731H137.499L136.839 26.9683C136.798 26.8272 136.74 26.7193 136.665 26.6446C136.59 26.5616 136.47 26.5201 136.304 26.5201H132.382V33.954H139.504C139.654 33.954 139.766 33.9167 139.84 33.8419C139.923 33.7589 139.982 33.6469 140.015 33.5057L140.787 30.5546H141.621V35H127.874ZM145.608 35V34.3525L147.251 33.9665C147.409 33.925 147.542 33.8419 147.65 33.7174C147.758 33.5929 147.812 33.4393 147.812 33.2567V19.4597C147.812 19.2687 147.758 19.111 147.65 18.9865C147.542 18.8537 147.409 18.7706 147.251 18.7374L145.608 18.3639V17.7164H152.083C153.37 17.7164 154.424 17.845 155.246 18.1024C156.068 18.3514 156.707 18.6835 157.163 19.0985C157.62 19.5136 157.935 19.9743 158.11 20.4807C158.284 20.9871 158.371 21.5018 158.371 22.0248C158.371 22.9712 158.155 23.7806 157.724 24.453C157.3 25.1254 156.773 25.6609 156.142 26.0593C155.52 26.4495 154.918 26.711 154.337 26.8438L152.432 27.4042L149.929 26.9185L150.041 26.0593C150.116 26.0925 150.282 26.1216 150.539 26.1465C150.805 26.1714 151.083 26.1921 151.373 26.2087C151.672 26.2171 151.904 26.2212 152.07 26.2212C152.942 26.2212 153.66 26.0469 154.225 25.6982C154.798 25.3495 155.221 24.8888 155.495 24.316C155.777 23.7349 155.918 23.1206 155.918 22.4731C155.918 21.1615 155.561 20.2109 154.847 19.6215C154.142 19.0238 153.133 18.725 151.821 18.725H150.116V33.2567C150.116 33.4476 150.161 33.6054 150.252 33.7299C150.344 33.8544 150.477 33.9333 150.651 33.9665L152.506 34.3525V35H145.608ZM161.895 35H159.206C158.699 35 158.305 34.9502 158.023 34.8506C157.74 34.7427 157.5 34.5725 157.3 34.34C157.101 34.1076 156.865 33.8046 156.591 33.431L152.083 27.2049L154.349 26.657L159.156 33.0076C159.305 33.2069 159.5 33.4103 159.741 33.6178C159.99 33.8253 160.214 33.954 160.413 34.0038L161.895 34.3525V35ZM172.234 35.386C170.524 35.386 169.071 35.0042 167.876 34.2404C166.681 33.4767 165.767 32.4141 165.136 31.0527C164.514 29.6912 164.203 28.1222 164.203 26.3457C164.203 24.6605 164.522 23.1372 165.161 21.7758C165.809 20.4143 166.734 19.3351 167.938 18.5382C169.142 17.733 170.582 17.3303 172.259 17.3303C174.085 17.3303 175.592 17.7413 176.779 18.5631C177.966 19.3766 178.846 20.4641 179.419 21.8256C180 23.187 180.291 24.6937 180.291 26.3457C180.291 27.4415 180.137 28.5249 179.83 29.5957C179.523 30.6666 179.041 31.6379 178.386 32.5096C177.738 33.3812 176.904 34.0785 175.883 34.6015C174.87 35.1245 173.654 35.386 172.234 35.386ZM172.471 34.3898C173.641 34.3898 174.617 34.0578 175.397 33.3937C176.177 32.7212 176.763 31.8081 177.153 30.6542C177.551 29.5003 177.751 28.2011 177.751 26.7566C177.751 25.0881 177.543 23.6228 177.128 22.361C176.721 21.0909 176.09 20.103 175.235 19.3974C174.388 18.6835 173.313 18.3265 172.01 18.3265C170.773 18.3265 169.764 18.6835 168.984 19.3974C168.212 20.103 167.648 21.0328 167.291 22.1867C166.934 23.3323 166.755 24.5734 166.755 25.9099C166.755 27.537 166.959 28.9897 167.365 30.2682C167.772 31.5466 168.395 32.5552 169.233 33.294C170.08 34.0246 171.159 34.3898 172.471 34.3898Z" fill="white"/>
<path d="M1 40.9949V14.1682L24.1979 1.14752L47.2326 14.1662V40.9968L24.1979 54.1743L1 40.9949Z" stroke="white" stroke-width="2"/>
</svg>
