<svg width="21" height="21" viewBox="0 0 21 21" fill="none" xmlns="http://www.w3.org/2000/svg">
<path fill-rule="evenodd" clip-rule="evenodd" d="M11.3334 4.66665C11.3334 4.20641 10.9603 3.83331 10.5 3.83331C10.0398 3.83331 9.66671 4.20641 9.66671 4.66665V9.66665H4.66671C4.20647 9.66665 3.83337 10.0397 3.83337 10.5C3.83337 10.9602 4.20647 11.3333 4.66671 11.3333H9.66671V16.3333C9.66671 16.7936 10.0398 17.1666 10.5 17.1666C10.9603 17.1666 11.3334 16.7936 11.3334 16.3333V11.3333H16.3334C16.7936 11.3333 17.1667 10.9602 17.1667 10.5C17.1667 10.0397 16.7936 9.66665 16.3334 9.66665H11.3334V4.66665Z" fill="#010F07"/>
</svg>
